<svg width="62" height="30" viewBox="0 0 62 30" fill="none" xmlns="http://www.w3.org/2000/svg">
<path d="M0 6C0 2.68629 2.68629 0 6 0H56C59.3137 0 62 2.68629 62 6V18C62 21.3137 59.3137 24 56 24H34L30.5 29.5L26.5 24H6C2.68629 24 0 21.3137 0 18V6Z" fill="black"/>
<path d="M29.66 10.556C29.7 9.756 29.98 9.14 30.5 8.708C31.028 8.268 31.72 8.048 32.576 8.048C33.16 8.048 33.66 8.152 34.076 8.36C34.492 8.56 34.804 8.836 35.012 9.188C35.228 9.532 35.336 9.924 35.336 10.364C35.336 10.868 35.204 11.296 34.94 11.648C34.684 11.992 34.376 12.224 34.016 12.344V12.392C34.48 12.536 34.84 12.792 35.096 13.16C35.36 13.528 35.492 14 35.492 14.576C35.492 15.056 35.38 15.484 35.156 15.86C34.94 16.236 34.616 16.532 34.184 16.748C33.76 16.956 33.248 17.06 32.648 17.06C31.744 17.06 31.008 16.832 30.44 16.376C29.872 15.92 29.572 15.248 29.54 14.36H31.172C31.188 14.752 31.32 15.068 31.568 15.308C31.824 15.54 32.172 15.656 32.612 15.656C33.02 15.656 33.332 15.544 33.548 15.32C33.772 15.088 33.884 14.792 33.884 14.432C33.884 13.952 33.732 13.608 33.428 13.4C33.124 13.192 32.652 13.088 32.012 13.088H31.664V11.708H32.012C33.148 11.708 33.716 11.328 33.716 10.568C33.716 10.224 33.612 9.956 33.404 9.764C33.204 9.572 32.912 9.476 32.528 9.476C32.152 9.476 31.86 9.58 31.652 9.788C31.452 9.988 31.336 10.244 31.304 10.556H29.66ZM42.5796 9.704H38.6916V11.756C38.8596 11.548 39.0996 11.38 39.4116 11.252C39.7236 11.116 40.0556 11.048 40.4076 11.048C41.0476 11.048 41.5716 11.188 41.9796 11.468C42.3876 11.748 42.6836 12.108 42.8676 12.548C43.0516 12.98 43.1436 13.444 43.1436 13.94C43.1436 14.86 42.8796 15.6 42.3516 16.16C41.8316 16.72 41.0876 17 40.1196 17C39.2076 17 38.4796 16.772 37.9356 16.316C37.3916 15.86 37.0836 15.264 37.0116 14.528H38.6436C38.7156 14.848 38.8756 15.104 39.1236 15.296C39.3796 15.488 39.7036 15.584 40.0956 15.584C40.5676 15.584 40.9236 15.436 41.1636 15.14C41.4036 14.844 41.5236 14.452 41.5236 13.964C41.5236 13.468 41.3996 13.092 41.1516 12.836C40.9116 12.572 40.5556 12.44 40.0836 12.44C39.7476 12.44 39.4676 12.524 39.2436 12.692C39.0196 12.86 38.8596 13.084 38.7636 13.364H37.1556V8.228H42.5796V9.704ZM44.1103 10.4C44.1103 9.792 44.2863 9.316 44.6383 8.972C44.9983 8.628 45.4583 8.456 46.0183 8.456C46.5783 8.456 47.0343 8.628 47.3863 8.972C47.7463 9.316 47.9263 9.792 47.9263 10.4C47.9263 11.016 47.7463 11.496 47.3863 11.84C47.0343 12.184 46.5783 12.356 46.0183 12.356C45.4583 12.356 44.9983 12.184 44.6383 11.84C44.2863 11.496 44.1103 11.016 44.1103 10.4ZM51.8143 8.6L47.0983 17H45.4663L50.1703 8.6H51.8143ZM46.0063 9.464C45.5663 9.464 45.3463 9.776 45.3463 10.4C45.3463 11.032 45.5663 11.348 46.0063 11.348C46.2223 11.348 46.3903 11.272 46.5103 11.12C46.6303 10.96 46.6903 10.72 46.6903 10.4C46.6903 9.776 46.4623 9.464 46.0063 9.464ZM49.3783 15.188C49.3783 14.572 49.5543 14.096 49.9063 13.76C50.2663 13.416 50.7263 13.244 51.2863 13.244C51.8463 13.244 52.2983 13.416 52.6423 13.76C52.9943 14.096 53.1703 14.572 53.1703 15.188C53.1703 15.804 52.9943 16.284 52.6423 16.628C52.2983 16.972 51.8463 17.144 51.2863 17.144C50.7183 17.144 50.2583 16.972 49.9063 16.628C49.5543 16.284 49.3783 15.804 49.3783 15.188ZM51.2743 14.252C50.8183 14.252 50.5903 14.564 50.5903 15.188C50.5903 15.82 50.8183 16.136 51.2743 16.136C51.7223 16.136 51.9463 15.82 51.9463 15.188C51.9463 14.564 51.7223 14.252 51.2743 14.252Z" fill="white"/>
<path d="M23 9L16.4667 14.88L13.9778 11.52L9 16" stroke="#00AC4F" stroke-width="2" stroke-linecap="round" stroke-linejoin="round"/>
<path d="M20 9H23V12" stroke="#00AC4F" stroke-width="2" stroke-linecap="round" stroke-linejoin="round"/>
</svg>
