<svg width="35" height="39" viewBox="0 0 35 39" fill="none" xmlns="http://www.w3.org/2000/svg">
<path d="M17.5 0C7.84369 0 0 8.51672 0 19.0016C0 29.4865 7.84369 38.0032 17.5 38.0032C27.1563 38.0032 35 29.4865 35 19.0016C35 8.51672 27.1563 0 17.5 0ZM17.5 1.65259C26.3354 1.65259 33.481 9.41133 33.481 19.0016C33.481 28.5951 26.3354 36.3538 17.5 36.3538C8.66761 36.3538 1.522 28.5951 1.522 19.0016C1.522 9.41133 8.66761 1.65259 17.5 1.65259ZM18.261 7.43668C17.536 7.43668 16.9847 7.97019 16.6252 8.57202C16.2656 9.1706 16.0169 9.91882 15.8132 10.7646C15.4087 12.4595 15.217 14.5708 15.217 16.5227C15.217 17.3392 15.3608 17.9313 15.4207 18.6568C15.4028 18.6502 15.3938 18.621 15.3728 18.6145C14.7886 18.3184 14.2103 18.1753 13.695 18.1753C13.0568 18.1753 11.9663 18.3542 10.9596 19.2C9.94992 20.0491 9.132 21.5976 9.132 23.9594C9.132 25.921 9.71923 27.411 10.6091 28.3641C11.4989 29.3238 12.6464 29.7435 13.695 29.7435C15.6484 29.7435 17.2393 28.6634 18.4288 27.0694C19.0969 27.6907 19.807 28.0909 20.544 28.0909C21.9372 28.0909 22.9229 26.962 23.582 25.7161C24.2411 24.4669 24.6905 22.9802 25.0711 21.7407C25.2059 21.3113 24.9872 20.8429 24.5887 20.6965C24.1902 20.5501 23.7588 20.7876 23.6269 21.2202C23.2464 22.4597 22.806 23.865 22.2607 24.8898C21.7185 25.9145 21.1762 26.4383 20.544 26.4383C20.2624 26.4383 19.792 26.1357 19.2857 25.638C19.3546 25.5111 19.4444 25.4005 19.5074 25.2736C20.7268 22.7362 21.305 19.5351 21.305 16.5227C21.305 13.969 20.9754 11.8284 20.4931 10.2734C20.2504 9.49266 19.9777 8.8583 19.6482 8.36707C19.3186 7.8791 18.8992 7.43668 18.261 7.43668ZM18.2131 9.1153C18.246 9.13807 18.3239 9.19988 18.4168 9.34302C18.6085 9.62604 18.8452 10.1303 19.049 10.7939C19.4654 12.131 19.783 14.1219 19.783 16.5227C19.783 19.2065 19.2347 22.066 18.237 24.2522C17.4101 22.6549 16.739 20.1174 16.739 16.5227C16.739 14.6912 16.9307 12.671 17.2873 11.1778C17.464 10.4361 17.6917 9.82448 17.9045 9.46989C18.0722 9.18686 18.1591 9.12831 18.2131 9.1153ZM13.695 19.8279C13.9137 19.8279 14.3511 19.919 14.7346 20.1109C15.1211 20.3061 15.4537 20.5924 15.6215 20.9112C15.6275 20.9177 15.6335 20.9242 15.6364 20.934C15.9391 22.5898 16.3615 24.0179 16.9218 25.0882C17.0446 25.3257 17.2064 25.4265 17.3382 25.638C16.3675 27.0694 15.22 28.0909 13.695 28.0909C13.0179 28.0909 12.2629 27.8208 11.6846 27.193C11.1004 26.5684 10.651 25.5762 10.651 23.9594C10.651 21.9847 11.2442 21.0543 11.8914 20.511C12.5385 19.9613 13.3505 19.8279 13.695 19.8279Z" fill="black"/>
</svg>
