<svg width="35" height="39" viewBox="0 0 35 39" fill="none" xmlns="http://www.w3.org/2000/svg">
<path d="M17.5 0C7.84369 0 0 8.51672 0 19.0016C0 29.4865 7.84369 38.0032 17.5 38.0032C27.1563 38.0032 35 29.4865 35 19.0016C35 8.51672 27.1563 0 17.5 0ZM17.5 1.65259C26.3354 1.65259 33.481 9.41133 33.481 19.0016C33.481 28.5951 26.3354 36.3538 17.5 36.3538C8.66761 36.3538 1.522 28.5951 1.522 19.0016C1.522 9.41133 8.66761 1.65259 17.5 1.65259ZM21.8323 9.96111C19.0939 9.96111 16.8558 12.3912 16.8558 15.3646C16.8558 15.3841 16.8618 15.4069 16.8618 15.4264C13.9617 15.0067 11.394 13.4517 9.62934 11.103C9.47055 10.8915 9.22787 10.7809 8.9792 10.8004C8.73053 10.8232 8.50582 10.9761 8.38298 11.2071C7.95455 12.0073 7.70587 12.941 7.70587 13.9299C7.70587 14.805 7.93357 15.6216 8.27812 16.3568C7.92758 16.4381 7.67292 16.7732 7.67292 17.1636V17.2221C7.67292 18.8194 8.36501 20.202 9.38367 21.1942C9.17394 21.4122 9.09904 21.7375 9.18593 22.04C9.60837 23.4747 10.6031 24.597 11.8404 25.2346C10.8487 25.7388 9.78514 26.0999 8.61368 26.0999C8.30209 26.0999 7.99949 26.0804 7.69988 26.0381C7.34635 25.9926 7.01079 26.2171 6.89394 26.5814C6.7711 26.9458 6.89993 27.3491 7.19954 27.5573C9.17994 28.9367 11.5408 29.7435 14.0665 29.7435C18.1531 29.7435 21.3859 27.8762 23.5431 25.2216C25.7032 22.5605 26.8237 19.1285 26.8237 15.8948C26.8237 15.7972 26.8208 15.7062 26.8178 15.6118C27.5578 14.9644 28.2559 14.252 28.7832 13.3932C28.9659 13.1036 28.9569 12.723 28.7622 12.44C28.5705 12.1602 28.2379 12.0399 27.9263 12.144C28.0521 11.8837 28.2259 11.6593 28.3068 11.3762C28.4057 11.0509 28.3038 10.6931 28.0581 10.4784C27.8124 10.2669 27.4709 10.2376 27.1983 10.4133C26.5331 10.8395 25.7841 11.1257 25.0111 11.3209C24.1393 10.5141 23.0577 9.96111 21.8323 9.96111ZM21.8323 11.6137C22.83 11.6137 23.7258 12.0659 24.352 12.7946C24.5318 13.0061 24.7984 13.1004 25.0531 13.0451C25.1699 13.0191 25.2628 12.941 25.3766 12.9085C25.3617 12.9182 25.3527 12.9377 25.3377 12.9475C25.0441 13.1394 24.9033 13.5233 24.9991 13.8811C25.095 14.239 25.3976 14.4862 25.7422 14.4797C25.6882 14.522 25.6583 14.5936 25.6073 14.6359C25.3976 14.7985 25.2778 15.062 25.2898 15.3386C25.2958 15.524 25.3017 15.7094 25.3017 15.8948C25.3017 18.7088 24.3041 21.7863 22.4016 24.1285C20.5021 26.4675 17.7367 28.0909 14.0665 28.0909C12.8112 28.0909 11.6277 27.8176 10.5012 27.4044C11.9034 27.0791 13.2306 26.5424 14.3182 25.6152C14.5699 25.3973 14.6717 25.0329 14.5669 24.7043C14.465 24.3725 14.1834 24.1481 13.8628 24.1415C12.7872 24.1188 11.9543 23.4551 11.3371 22.6028C11.5648 22.5703 11.7985 22.5703 12.0172 22.5052C12.3558 22.4044 12.5865 22.0628 12.5745 21.6822C12.5625 21.2983 12.3108 20.973 11.9633 20.9014C10.7079 20.6217 9.72821 19.6002 9.36869 18.2761C9.69226 18.3607 9.97389 18.5494 10.3184 18.5624C10.657 18.5722 10.9656 18.3412 11.0675 17.9899C11.1723 17.6385 11.0465 17.2579 10.7678 17.0497C9.83907 16.3763 9.22787 15.2345 9.22787 13.9299C9.22787 13.6567 9.36269 13.442 9.41363 13.1915C11.5738 15.5142 14.45 17.0562 17.6917 17.2351C17.9284 17.2481 18.1591 17.1375 18.3119 16.9358C18.4677 16.7374 18.5217 16.4674 18.4677 16.2169C18.4108 15.9469 18.3778 15.6606 18.3778 15.3646C18.3778 13.2826 19.9148 11.6137 21.8323 11.6137Z" fill="black"/>
</svg>
