<svg width="35" height="39" viewBox="0 0 35 39" fill="none" xmlns="http://www.w3.org/2000/svg">
<path d="M17.5 0C7.84369 0 0 8.51672 0 19.0016C0 29.4865 7.84369 38.0032 17.5 38.0032C27.1563 38.0032 35 29.4865 35 19.0016C35 8.51672 27.1563 0 17.5 0ZM17.5 1.65259C26.3354 1.65259 33.481 9.41133 33.481 19.0016C33.481 28.5951 26.3354 36.3538 17.5 36.3538C8.66761 36.3538 1.522 28.5951 1.522 19.0016C1.522 9.41133 8.66761 1.65259 17.5 1.65259ZM10.651 8.26297C9.40164 8.26297 8.371 9.38205 8.371 10.7419C8.371 12.0984 9.40164 13.2175 10.651 13.2175C11.9034 13.2175 12.934 12.0984 12.934 10.7419C12.934 9.38205 11.9034 8.26297 10.651 8.26297ZM10.651 9.91557C11.0794 9.91557 11.412 10.2767 11.412 10.7419C11.412 11.2038 11.0794 11.5649 10.651 11.5649C10.2256 11.5649 9.893 11.2038 9.893 10.7419C9.893 10.2767 10.2256 9.91557 10.651 9.91557ZM9.132 14.0438C8.71255 14.0438 8.371 14.4147 8.371 14.8701V27.2646C8.371 27.72 8.71255 28.0909 9.132 28.0909H12.173C12.5925 28.0909 12.934 27.72 12.934 27.2646V14.8701C12.934 14.4147 12.5925 14.0438 12.173 14.0438H9.132ZM15.217 14.0438C14.7976 14.0438 14.456 14.4147 14.456 14.8701V27.2646C14.456 27.72 14.7976 28.0909 15.217 28.0909H18.261C18.6804 28.0909 19.022 27.72 19.022 27.2646V21.0673C19.022 19.9287 19.8759 19.0016 20.9245 19.0016C21.9731 19.0016 22.827 19.9287 22.827 21.0673V27.2646C22.827 27.72 23.1686 28.0909 23.588 28.0909H26.632C27.0514 28.0909 27.393 27.72 27.393 27.2646V20.241C27.393 16.8317 24.8284 14.0438 21.6855 14.0438C20.7088 14.0438 19.8279 14.3919 19.022 14.8603C19.019 14.4082 18.6775 14.0438 18.261 14.0438H15.217ZM9.893 15.6964H11.412V26.4383H9.893V15.6964ZM15.978 15.6964H17.5V16.3731C17.5 16.7049 17.6828 17.0009 17.9644 17.1343C18.243 17.2612 18.5696 17.1993 18.7883 16.9651C19.5433 16.1811 20.556 15.6964 21.6855 15.6964C24.0074 15.6964 25.871 17.7199 25.871 20.241V26.4383H24.349V21.0673C24.349 19.0276 22.803 17.349 20.9245 17.349C19.046 17.349 17.5 19.0276 17.5 21.0673V26.4383H15.978V15.6964Z" fill="black"/>
</svg>
