<svg width="35" height="39" viewBox="0 0 35 39" fill="none" xmlns="http://www.w3.org/2000/svg">
<path d="M17.5 0C7.84369 0 0 8.51672 0 19.0016C0 29.4865 7.84369 38.0032 17.5 38.0032C27.1563 38.0032 35 29.4865 35 19.0016C35 8.51672 27.1563 0 17.5 0ZM17.5 1.65259C26.3354 1.65259 33.481 9.41133 33.481 19.0016C33.481 28.5951 26.3354 36.3538 17.5 36.3538C8.66761 36.3538 1.522 28.5951 1.522 19.0016C1.522 9.41133 8.66761 1.65259 17.5 1.65259ZM18.7014 6.61038C16.6851 6.61038 15.1541 7.32607 14.2103 8.5948C13.2696 9.86027 12.934 11.5519 12.934 13.4062V14.8701H11.412C10.9955 14.8701 10.651 15.241 10.651 15.6964V19.8279C10.651 20.2833 10.9955 20.6542 11.412 20.6542H12.934V30.5697C12.934 31.0252 13.2756 31.396 13.695 31.396H18.261C18.6804 31.396 19.022 31.0252 19.022 30.5697V20.6542H22.066C22.4285 20.6542 22.7401 20.3777 22.812 19.9905L23.573 15.8591C23.618 15.6183 23.558 15.3646 23.4142 15.1759C23.2704 14.9807 23.0547 14.8701 22.827 14.8701H19.022V13.0614C19.022 12.658 19.046 12.6612 19.1538 12.5864C19.2617 12.5116 19.6452 12.3912 20.3253 12.3912H22.827C23.2464 12.3912 23.588 12.0203 23.588 11.5649V8.26297C23.588 7.91163 23.3843 7.59933 23.0817 7.48547C23.0817 7.48547 20.8915 6.61038 18.7014 6.61038ZM18.7014 8.26297C20.1425 8.26297 21.4788 8.68588 22.066 8.88107V10.7419H20.3253C19.5283 10.7419 18.8812 10.8102 18.3239 11.2006C17.7696 11.5909 17.5 12.3457 17.5 13.0614V15.6964C17.5 16.1518 17.8416 16.5227 18.261 16.5227H21.8982L21.4428 19.0016H18.261C17.8416 19.0016 17.5 19.3724 17.5 19.8279V29.7435H14.456V19.8279C14.456 19.3724 14.1144 19.0016 13.695 19.0016H12.173V16.5227H13.695C14.1144 16.5227 14.456 16.1518 14.456 15.6964V13.4062C14.456 11.7699 14.7676 10.4784 15.3968 9.62929C16.0229 8.78348 16.9967 8.26297 18.7014 8.26297Z" fill="black"/>
</svg>
