<svg width="30" height="31" viewBox="0 0 30 31" fill="none" xmlns="http://www.w3.org/2000/svg">
<path d="M22.955 7.54505C27.3484 11.9384 27.3484 19.0615 22.955 23.4549C18.5616 27.8484 11.4385 27.8484 7.04513 23.4549C2.65173 19.0615 2.65173 11.9384 7.04513 7.54505C11.4385 3.15165 18.5616 3.15165 22.955 7.54505Z" fill="#262628" stroke="#262628" stroke-width="1.5" stroke-linecap="round" stroke-linejoin="round"/>
<path d="M17.4864 10.9049C18.8595 12.278 18.8595 14.5044 17.4864 15.8776C16.1133 17.2507 13.8869 17.2507 12.5136 15.8776C11.1405 14.5044 11.1405 12.278 12.5136 10.9049C13.8869 9.53171 16.1133 9.53171 17.4864 10.9049Z" stroke="white" stroke-width="1.5" stroke-linecap="round" stroke-linejoin="round"/>
<path d="M22.1338 24.1975C20.34 22.3088 17.81 21.125 15 21.125C12.19 21.125 9.66001 22.3087 7.86626 24.1987" stroke="white" stroke-width="1.5" stroke-linecap="round" stroke-linejoin="round"/>
</svg>
