<svg width="28" height="29" viewBox="0 0 28 29" fill="none" xmlns="http://www.w3.org/2000/svg">
<path fill-rule="evenodd" clip-rule="evenodd" d="M23.3333 25H4.66667C4.04778 25.0001 3.45419 24.7544 3.01657 24.3168C2.57894 23.8792 2.33316 23.2856 2.33334 22.6667V6.33333C2.33316 5.71444 2.57894 5.12085 3.01657 4.68323C3.45419 4.24561 4.04778 3.99983 4.66667 4H23.3333C23.9523 3.99983 24.5459 4.24561 24.9835 4.68323C25.4211 5.12085 25.6668 5.71444 25.6667 6.33333V22.6667C25.6668 23.2856 25.4211 23.8792 24.9835 24.3168C24.5459 24.7544 23.9523 25.0001 23.3333 25Z" stroke="#262628" stroke-width="1.5" stroke-linecap="round" stroke-linejoin="round"/>
<path d="M2.33334 9.83334H25.6667" stroke="#262628" stroke-width="1.5" stroke-linecap="round" stroke-linejoin="round"/>
<path d="M7 9.83333L9.33333 4" stroke="#262628" stroke-width="1.5" stroke-linecap="round" stroke-linejoin="round"/>
<path d="M12.8333 9.83333L15.1667 4" stroke="#262628" stroke-width="1.5" stroke-linecap="round" stroke-linejoin="round"/>
<path d="M18.6667 9.83333L21 4" stroke="#262628" stroke-width="1.5" stroke-linecap="round" stroke-linejoin="round"/>
<path fill-rule="evenodd" clip-rule="evenodd" d="M11.8096 19.5739V15.2594C11.8097 14.9884 11.9544 14.738 12.1891 14.6025C12.4238 14.4672 12.7131 14.4673 12.9477 14.6029L16.6808 16.7602C16.9153 16.8956 17.0596 17.1459 17.0596 17.4167C17.0596 17.6874 16.9153 17.9377 16.6808 18.0731L12.9477 20.2304C12.7131 20.366 12.4238 20.3661 12.1891 20.2308C11.9544 20.0953 11.8097 19.845 11.8096 19.5739Z" stroke="#262628" stroke-width="1.5" stroke-linecap="round" stroke-linejoin="round"/>
</svg>
