<svg width="192" height="32" viewBox="0 0 192 32" fill="none" xmlns="http://www.w3.org/2000/svg">
<path fill-rule="evenodd" clip-rule="evenodd" d="M187.333 18H175.667C174.746 18 174 17.254 174 16.333V4.667C174 3.746 174.746 3 175.667 3H187.334C188.254 3 189 3.746 189 4.667V16.334C189 17.254 188.254 18 187.333 18Z" stroke="#9797BD" stroke-width="1.5" stroke-linecap="round" stroke-linejoin="round"/>
<path d="M183.268 7.166C184.244 8.142 184.244 9.725 183.268 10.702C182.292 11.678 180.709 11.678 179.732 10.702C178.755 9.726 178.756 8.143 179.732 7.166C180.708 6.189 182.291 6.19 183.268 7.166Z" stroke="#9797BD" stroke-width="1.5" stroke-linecap="round" stroke-linejoin="round"/>
<path d="M186 15.434C185.869 15.105 185.666 14.809 185.406 14.568C184.967 14.16 184.392 13.934 183.792 13.934C182.792 13.934 180.208 13.934 179.208 13.934C178.608 13.934 178.034 14.161 177.594 14.568C177.334 14.809 177.131 15.105 177 15.434" stroke="#9797BD" stroke-width="1.5" stroke-linecap="round" stroke-linejoin="round"/>
<path d="M186 18V19.333C186 20.254 185.254 21 184.333 21H172.667C171.746 21 171 20.254 171 19.333V7.667C171 6.746 171.746 6 172.667 6H174" stroke="#9797BD" stroke-width="1.5" stroke-linecap="round" stroke-linejoin="round"/>
<path fill-rule="evenodd" clip-rule="evenodd" d="M18 20H6C4.895 20 4 19.105 4 18V6C4 4.895 4.895 4 6 4H18C19.105 4 20 4.895 20 6V18C20 19.105 19.105 20 18 20Z" stroke="#43A2FA" stroke-width="1.5" stroke-linecap="round" stroke-linejoin="round"/>
<path d="M4 12H20" stroke="#43A2FA" stroke-width="1.5" stroke-linecap="round" stroke-linejoin="round"/>
<path d="M12 20V4" stroke="#43A2FA" stroke-width="1.5" stroke-linecap="round" stroke-linejoin="round"/>
<circle cx="12" cy="29" r="3" fill="#43A2FA"/>
</svg>
