<svg width="82" height="31" viewBox="0 0 82 31" fill="none" xmlns="http://www.w3.org/2000/svg">
<circle opacity="0.3" cx="15.4015" cy="15.4015" r="13.9015" stroke="#282828" stroke-width="3"/>
<circle cx="65.9186" cy="15.4015" r="13.9015" stroke="#282828" stroke-width="3"/>
<path opacity="0.3" d="M9.76599 14.6945C9.37546 15.085 9.37546 15.7182 9.76599 16.1087L16.1299 22.4726C16.5205 22.8632 17.1536 22.8632 17.5442 22.4726C17.9347 22.0821 17.9347 21.449 17.5442 21.0584L11.8873 15.4016L17.5442 9.74473C17.9347 9.3542 17.9347 8.72104 17.5442 8.33051C17.1536 7.93999 16.5205 7.93999 16.1299 8.33051L9.76599 14.6945ZM20.3301 14.4016L10.4731 14.4016L10.4731 16.4016L20.3301 16.4016L20.3301 14.4016Z" fill="#282828"/>
<path d="M71.5543 14.6945C71.9448 15.085 71.9448 15.7182 71.5543 16.1087L65.1904 22.4726C64.7998 22.8632 64.1667 22.8632 63.7762 22.4726C63.3856 22.0821 63.3856 21.449 63.7762 21.0584L69.433 15.4016L63.7762 9.74473C63.3856 9.3542 63.3856 8.72104 63.7762 8.33051C64.1667 7.93999 64.7998 7.93999 65.1904 8.33051L71.5543 14.6945ZM60.9902 14.4016L70.8472 14.4016L70.8472 16.4016L60.9902 16.4016L60.9902 14.4016Z" fill="#282828"/>
</svg>
