<svg width="82" height="31" viewBox="0 0 82 31" fill="none" xmlns="http://www.w3.org/2000/svg">
<circle opacity="0.3" cx="15.4015" cy="15.4015" r="13.9015" stroke="#282828" stroke-width="3"/>
<circle cx="65.9185" cy="15.4015" r="13.9015" stroke="#282828" stroke-width="3"/>
<path opacity="0.3" d="M9.76587 14.6944C9.37534 15.085 9.37534 15.7181 9.76587 16.1087L16.1298 22.4726C16.5204 22.8631 17.1535 22.8631 17.544 22.4726C17.9346 22.0821 17.9346 21.4489 17.544 21.0584L11.8872 15.4016L17.544 9.7447C17.9346 9.35417 17.9346 8.72101 17.544 8.33048C17.1535 7.93996 16.5203 7.93996 16.1298 8.33048L9.76587 14.6944ZM20.33 14.4016L10.473 14.4016L10.473 16.4016L20.33 16.4016L20.33 14.4016Z" fill="#282828"/>
<path d="M71.5542 14.6944C71.9447 15.085 71.9447 15.7181 71.5542 16.1087L65.1902 22.4726C64.7997 22.8631 64.1666 22.8631 63.776 22.4726C63.3855 22.0821 63.3855 21.4489 63.776 21.0584L69.4329 15.4016L63.776 9.7447C63.3855 9.35417 63.3855 8.72101 63.776 8.33048C64.1666 7.93996 64.7997 7.93996 65.1902 8.33048L71.5542 14.6944ZM60.9901 14.4016L70.8471 14.4016L70.8471 16.4016L60.9901 16.4016L60.9901 14.4016Z" fill="#282828"/>
</svg>
